<svg xmlns="http://www.w3.org/2000/svg" xmlns:xlink="http://www.w3.org/1999/xlink" x="0px" y="0px"
	 viewBox="369.61 140 87 80" enable-background="new 369.61 140 87 80" xml:space="preserve">
<polygon fill="#006566" points="429.61,199.8 413.71,168.1 409.31,168.1 423.21,195.8 409.81,195.8 399.61,175.6 389.51,195.8
	376.11,195.8 399.61,148.8 403.31,156.3 407.81,156.3 399.61,140 369.61,199.8 391.91,199.8 399.61,184.4 407.31,199.8 "/>
<polygon fill="#F96566" points="434.11,160.2 426.41,175.6 418.71,160.2 396.41,160.2 412.31,191.9 416.71,191.9 402.81,164.2
	416.21,164.2 426.41,184.4 436.51,164.2 449.91,164.2 426.41,211.2 422.71,203.7 418.21,203.7 426.41,220 456.41,160.2 "/>
</svg>
